<svg width="24" height="25" viewBox="0 0 24 25" fill="none" xmlns="http://www.w3.org/2000/svg">
<path d="M16.0504 14.1309L20.9201 9.7575V18.4544L16.0504 14.1309ZM9.77537 14.8716L11.4854 16.406C11.7538 16.6417 12.1038 16.7841 12.4861 16.7841H12.4996H12.5099C12.8931 16.7841 13.243 16.6409 13.5146 16.4036L13.5122 16.4052L15.2223 14.8707L20.4206 19.4856H4.57944L9.77537 14.8716ZM4.57232 8.72061H20.4301L12.8131 15.559C12.7275 15.629 12.6215 15.6671 12.5123 15.667H12.5012H12.4909C12.3813 15.6672 12.2749 15.6288 12.1893 15.5582L12.19 15.559L4.57232 8.72061ZM4.08067 9.75668L8.94962 14.1301L4.08067 18.4512V9.75668ZM21.1814 7.75901C20.9914 7.6608 20.7681 7.60352 20.5314 7.60352H4.47177C4.2423 7.60357 4.01599 7.65877 3.8107 7.76474L3.81941 7.76064C3.57364 7.88595 3.36667 8.0798 3.22188 8.32029C3.07708 8.56079 3.00023 8.83835 3 9.12161V19.083C3.00042 19.4861 3.15553 19.8726 3.4313 20.1577C3.70707 20.4427 4.08098 20.6031 4.47098 20.6035H20.529C20.919 20.6031 21.2929 20.4427 21.5687 20.1577C21.8445 19.8726 21.9996 19.4861 22 19.083V9.12161C22 8.52665 21.6683 8.01107 21.1853 7.7631L21.1766 7.75901H21.1814Z" fill="#161616"/>
</svg>
