<svg width="20" height="24" viewBox="0 0 20 24" fill="none" xmlns="http://www.w3.org/2000/svg">
<path d="M12.5003 17.4167C11.5097 17.4176 10.5379 17.1459 9.69128 16.6315C8.84468 16.1171 8.1559 15.3797 7.70033 14.5H11.9837C12.3003 14.5 12.592 14.325 12.7253 14.0417C13.0003 13.4917 12.6003 12.8333 11.9837 12.8333H7.15033C7.10866 12.5583 7.08366 12.2833 7.08366 12C7.08366 11.7167 7.10866 11.4417 7.15033 11.1667H11.9837C12.3003 11.1667 12.592 10.9917 12.7253 10.7083C12.7907 10.5816 12.8223 10.4402 12.8171 10.2977C12.8118 10.1552 12.7699 10.0165 12.6953 9.895C12.6207 9.77348 12.516 9.67327 12.3913 9.60407C12.2667 9.53488 12.1262 9.49903 11.9837 9.5H7.70033C8.15671 8.62099 8.84567 7.88415 9.69209 7.36983C10.5385 6.85551 11.5099 6.58346 12.5003 6.58333C13.542 6.58333 14.517 6.88333 15.3503 7.39167C15.767 7.65 16.3087 7.60833 16.6587 7.25833C17.142 6.775 17.0337 5.98333 16.4503 5.625C15.2634 4.89115 13.8958 4.50166 12.5003 4.5C9.23366 4.5 6.46699 6.59167 5.43366 9.5H3.01699C2.70033 9.5 2.40866 9.675 2.26699 9.95833C1.99199 10.5167 2.39199 11.1667 3.01699 11.1667H5.05033C4.98284 11.7202 4.98284 12.2798 5.05033 12.8333H3.01699C2.70033 12.8333 2.40866 13.0083 2.27533 13.2917C1.99199 13.85 2.39199 14.5 3.01699 14.5H5.43366C6.46699 17.4083 9.23366 19.5 12.5003 19.5C13.9503 19.5 15.3003 19.0917 16.4503 18.375C17.0253 18.0167 17.1337 17.2167 16.6503 16.7333C16.3003 16.3833 15.7587 16.3417 15.342 16.6083C14.517 17.125 13.5503 17.4167 12.5003 17.4167Z" fill="#161616"/>
</svg>
