<svg width="20" height="25" viewBox="0 0 20 25" fill="none" xmlns="http://www.w3.org/2000/svg">
<path d="M10 4.47855C8.39303 4.47855 6.82214 4.95507 5.486 5.84786C4.14985 6.74064 3.10844 8.00959 2.49348 9.49424C1.87852 10.9789 1.71762 12.6126 2.03112 14.1887C2.34463 15.7648 3.11846 17.2125 4.25476 18.3488C5.39106 19.4851 6.8388 20.2589 8.4149 20.5724C9.99099 20.8859 11.6247 20.725 13.1093 20.1101C14.594 19.4951 15.8629 18.4537 16.7557 17.1176C17.6485 15.7814 18.125 14.2105 18.125 12.6035C18.1227 10.4494 17.266 8.38406 15.7427 6.86082C14.2195 5.33758 12.1542 4.48082 10 4.47855ZM10 19.4785C8.64026 19.4785 7.31105 19.0753 6.18046 18.3199C5.04987 17.5645 4.16868 16.4907 3.64833 15.2345C3.12798 13.9783 2.99183 12.5959 3.2571 11.2623C3.52238 9.92868 4.17716 8.70367 5.13864 7.74219C6.10013 6.7807 7.32514 6.12592 8.65876 5.86065C9.99238 5.59537 11.3747 5.73152 12.631 6.25187C13.8872 6.77223 14.9609 7.65341 15.7164 8.784C16.4718 9.91459 16.875 11.2438 16.875 12.6035C16.8729 14.4263 16.1479 16.1738 14.8591 17.4626C13.5702 18.7515 11.8227 19.4765 10 19.4785ZM15 12.6035C15 12.7693 14.9342 12.9283 14.8169 13.0455C14.6997 13.1627 14.5408 13.2285 14.375 13.2285H10C9.83424 13.2285 9.67527 13.1627 9.55806 13.0455C9.44085 12.9283 9.375 12.7693 9.375 12.6035V8.22855C9.375 8.06279 9.44085 7.90381 9.55806 7.7866C9.67527 7.66939 9.83424 7.60355 10 7.60355C10.1658 7.60355 10.3247 7.66939 10.4419 7.7866C10.5592 7.90381 10.625 8.06279 10.625 8.22855V11.9785H14.375C14.5408 11.9785 14.6997 12.0444 14.8169 12.1616C14.9342 12.2788 15 12.4378 15 12.6035Z" fill="#161616"/>
</svg>
