<svg width="24" height="25" viewBox="0 0 24 25" fill="none" xmlns="http://www.w3.org/2000/svg">
<path d="M12 2.85355C8.27344 2.85355 5.25 5.7312 5.25 9.27542C5.25 13.3535 9.75 19.8162 11.4023 22.0484C11.4709 22.1426 11.5608 22.2193 11.6647 22.2722C11.7686 22.325 11.8835 22.3526 12 22.3526C12.1165 22.3526 12.2314 22.325 12.3353 22.2722C12.4392 22.2193 12.5291 22.1426 12.5977 22.0484C14.25 19.8171 18.75 13.3568 18.75 9.27542C18.75 5.7312 15.7266 2.85355 12 2.85355Z" stroke="#161616" stroke-width="1.5" stroke-linecap="round" stroke-linejoin="round"/>
<path d="M12 11.8535C13.2426 11.8535 14.25 10.8462 14.25 9.60355C14.25 8.36091 13.2426 7.35355 12 7.35355C10.7574 7.35355 9.75 8.36091 9.75 9.60355C9.75 10.8462 10.7574 11.8535 12 11.8535Z" stroke="#161616" stroke-width="1.5" stroke-linecap="round" stroke-linejoin="round"/>
</svg>
